<?xml version="1.0" standalone="no"?><!DOCTYPE svg PUBLIC "-//W3C//DTD SVG 1.1//EN" "http://www.w3.org/Graphics/SVG/1.1/DTD/svg11.dtd"><svg t="1512894123342" class="icon" style="" viewBox="0 0 1024 1024" version="1.1" xmlns="http://www.w3.org/2000/svg" p-id="3512" xmlns:xlink="http://www.w3.org/1999/xlink" width="200" height="200"><defs><style type="text/css"></style></defs><path d="M125.30688 389.12c65.42336 0 118.459733 52.691627 118.459733 117.68832s-53.036373 117.691733-118.459733 117.691733S6.843733 571.808427 6.843733 506.80832C6.843733 441.811627 59.880107 389.12 125.30688 389.12z m375.118507 0c65.42336 0 118.459733 52.691627 118.459733 117.68832s-53.03296 117.691733-118.459733 117.691733c-65.42336 0-118.459733-52.69504-118.459734-117.691733 0-64.996693 53.039787-117.68832 118.459734-117.68832z m394.871466 0c65.419947 0 118.452907 52.691627 118.452907 117.68832s-53.03296 117.691733-118.452907 117.691733c-65.426773 0-118.459733-52.69504-118.459733-117.691733 0-64.996693 53.03296-117.68832 118.459733-117.68832z" p-id="3513" fill="#000000"></path></svg>