<?xml version="1.0" standalone="no"?><!DOCTYPE svg PUBLIC "-//W3C//DTD SVG 1.1//EN" "http://www.w3.org/Graphics/SVG/1.1/DTD/svg11.dtd"><svg t="1512886290732" class="icon" style="" viewBox="0 0 1024 1024" version="1.1" xmlns="http://www.w3.org/2000/svg" p-id="2448" xmlns:xlink="http://www.w3.org/1999/xlink" width="200" height="200"><defs><style type="text/css"></style></defs><path d="M1022.016 190.624q-5.024-15.584-19.488-21.184l-285.248-124.8q-12.256-4.448-24.512-0.544t-18.944 15.04l-104.736 167.136v1.12l-239.552 27.84-17.824-40.128q-4.448-12.256-16.704-17.824L50.976 80.288q-22.272-10.016-39.552 6.688T3.072 125.984l77.984 182.72v470.208q0 18.944 16.704 28.96l258.496 168.256q3.328 2.24 7.808 3.328l2.24 1.12q5.568 1.12 8.928 1.12h4.448l482.464-55.712q13.376-2.24 22.272-12.256t8.928-23.392V422.368l125.92-202.784q7.808-13.376 2.784-28.96zM620.32 284.224l178.272 114.752-178.272 21.184V284.224z m-45.664-14.496l3.328 3.328v151.552l-168.256 20.064-63.52-149.312zM252.64 255.264l64.64 151.552L151.264 299.84v-4.448q-1.12-4.448-2.24-7.808L104.448 185.088z m-100.288 94.688l187.2 121.44v410.048l-187.2-121.44V349.952z m258.496 557.12V489.248q0-1.12 1.12-3.328l411.168-46.784V859.2z m428.992-531.488l-199.456-129.248 76.896-124.8 220.608 95.808z" p-id="2449"></path></svg>
