<svg xmlns="http://www.w3.org/2000/svg" xmlns:xlink="http://www.w3.org/1999/xlink" viewBox="0 0 179.56 203.97"><defs><style>.cls-1{fill:url(#未命名的渐变_6);}</style><radialGradient id="未命名的渐变_6" cx="89.78" cy="101.98" r="96.08" gradientUnits="userSpaceOnUse"><stop offset="0" stop-color="#408ecd"/><stop offset="0.41" stop-color="#428fce" stop-opacity="0.99"/><stop offset="0.56" stop-color="#4b94d0" stop-opacity="0.96"/><stop offset="0.67" stop-color="#599dd4" stop-opacity="0.89"/><stop offset="0.75" stop-color="#6ea9d9" stop-opacity="0.81"/><stop offset="0.83" stop-color="#8abae0" stop-opacity="0.69"/><stop offset="0.89" stop-color="#abcde9" stop-opacity="0.55"/><stop offset="0.95" stop-color="#d2e5f3" stop-opacity="0.39"/><stop offset="1" stop-color="#fff" stop-opacity="0.2"/></radialGradient></defs><title>资源 1</title><g id="图层_2" data-name="图层 2"><g id="图层_1-2" data-name="图层 1"><polygon class="cls-1" points="134.09 28.2 176.24 51.62 177.89 151.89 179.56 50.63 178.72 49.19 135.29 23.15 132.79 23.15 44.27 72.34 44.27 79.56 85.26 104.12 85.91 144.75 4.98 99.78 4.18 51.57 90.2 0 1.67 49.19 0.83 50.63 0 101.26 1.25 103.43 88.11 155.5 94.36 151.9 95.17 104.12 130 83.23 131.52 175.81 90.16 200.6 2.5 151.89 89.36 203.97 91.03 203.97 135.29 179.38 136.54 177.21 138.21 75.95 131.96 72.34 90.21 95.54 54.68 75.81 134.09 28.2"/></g></g></svg>